<mxfile host="app.diagrams.net" modified="2022-02-10T04:54:06.192Z" agent="5.0 (Macintosh; Intel Mac OS X 10_15_7) AppleWebKit/537.36 (KHTML, like Gecko) Chrome/97.0.4692.99 Safari/537.36" etag="5q8u1zJxv71-XIzp4F3Y" version="16.5.5" type="github">
  <diagram id="iNHjxLBgBfZNOwcnmtqa" name="Page-1">
    <mxGraphModel dx="946" dy="620" grid="1" gridSize="10" guides="1" tooltips="1" connect="1" arrows="1" fold="1" page="1" pageScale="1" pageWidth="850" pageHeight="1100" math="0" shadow="0">
      <root>
        <mxCell id="0" />
        <mxCell id="1" parent="0" />
        <mxCell id="58gA9OCRjjGbcAsdGu9h-41" style="edgeStyle=orthogonalEdgeStyle;rounded=0;orthogonalLoop=1;jettySize=auto;html=1;entryX=0;entryY=0.5;entryDx=0;entryDy=0;elbow=vertical;startArrow=none;endArrow=none;endFill=0;" edge="1" parent="1" source="58gA9OCRjjGbcAsdGu9h-42" target="58gA9OCRjjGbcAsdGu9h-6">
          <mxGeometry relative="1" as="geometry">
            <Array as="points">
              <mxPoint x="395" y="340" />
            </Array>
          </mxGeometry>
        </mxCell>
        <mxCell id="58gA9OCRjjGbcAsdGu9h-2" value="Fitness_room" style="rounded=0;whiteSpace=wrap;html=1;" vertex="1" parent="1">
          <mxGeometry x="355" y="420" width="80" height="40" as="geometry" />
        </mxCell>
        <mxCell id="58gA9OCRjjGbcAsdGu9h-50" style="edgeStyle=orthogonalEdgeStyle;rounded=0;orthogonalLoop=1;jettySize=auto;html=1;entryX=0.75;entryY=0;entryDx=0;entryDy=0;elbow=vertical;startArrow=none;endArrow=none;endFill=0;" edge="1" parent="1" source="58gA9OCRjjGbcAsdGu9h-51" target="58gA9OCRjjGbcAsdGu9h-6">
          <mxGeometry relative="1" as="geometry" />
        </mxCell>
        <mxCell id="58gA9OCRjjGbcAsdGu9h-53" style="edgeStyle=orthogonalEdgeStyle;rounded=0;orthogonalLoop=1;jettySize=auto;html=1;entryX=0.5;entryY=0;entryDx=0;entryDy=0;elbow=vertical;endArrow=none;endFill=0;" edge="1" parent="1" source="58gA9OCRjjGbcAsdGu9h-4" target="58gA9OCRjjGbcAsdGu9h-51">
          <mxGeometry relative="1" as="geometry" />
        </mxCell>
        <mxCell id="58gA9OCRjjGbcAsdGu9h-4" value="Trainer" style="rounded=0;whiteSpace=wrap;html=1;" vertex="1" parent="1">
          <mxGeometry x="675" y="205" width="70" height="30" as="geometry" />
        </mxCell>
        <mxCell id="58gA9OCRjjGbcAsdGu9h-6" value="FITNESS_CENTER" style="rounded=0;whiteSpace=wrap;html=1;" vertex="1" parent="1">
          <mxGeometry x="525" y="310" width="120" height="60" as="geometry" />
        </mxCell>
        <mxCell id="58gA9OCRjjGbcAsdGu9h-63" style="edgeStyle=orthogonalEdgeStyle;rounded=0;orthogonalLoop=1;jettySize=auto;html=1;entryX=0.9;entryY=1.033;entryDx=0;entryDy=0;entryPerimeter=0;endArrow=none;endFill=0;elbow=vertical;" edge="1" parent="1" source="58gA9OCRjjGbcAsdGu9h-9" target="58gA9OCRjjGbcAsdGu9h-6">
          <mxGeometry relative="1" as="geometry" />
        </mxCell>
        <mxCell id="58gA9OCRjjGbcAsdGu9h-9" value="CenterID&lt;span style=&quot;color: rgba(0 , 0 , 0 , 0) ; font-family: monospace ; font-size: 0px&quot;&gt;%3CmxGraphModel%3E%3Croot%3E%3CmxCell%20id%3D%220%22%2F%3E%3CmxCell%20id%3D%221%22%20parent%3D%220%22%2F%3E%3CmxCell%20id%3D%222%22%20value%3D%22%22%20style%3D%22ellipse%3BwhiteSpace%3Dwrap%3Bhtml%3D1%3B%22%20vertex%3D%221%22%20parent%3D%221%22%3E%3CmxGeometry%20x%3D%22360%22%20y%3D%22280%22%20width%3D%22120%22%20height%3D%2280%22%20as%3D%22geometry%22%2F%3E%3C%2FmxCell%3E%3C%2Froot%3E%3C%2FmxGraphModel%3E&lt;/span&gt;" style="ellipse;whiteSpace=wrap;html=1;" vertex="1" parent="1">
          <mxGeometry x="635" y="400" width="60" height="40" as="geometry" />
        </mxCell>
        <mxCell id="58gA9OCRjjGbcAsdGu9h-62" style="edgeStyle=orthogonalEdgeStyle;rounded=0;orthogonalLoop=1;jettySize=auto;html=1;endArrow=none;endFill=0;elbow=vertical;" edge="1" parent="1" source="58gA9OCRjjGbcAsdGu9h-11" target="58gA9OCRjjGbcAsdGu9h-6">
          <mxGeometry relative="1" as="geometry" />
        </mxCell>
        <mxCell id="58gA9OCRjjGbcAsdGu9h-11" value="Location" style="ellipse;whiteSpace=wrap;html=1;" vertex="1" parent="1">
          <mxGeometry x="555" y="400" width="60" height="40" as="geometry" />
        </mxCell>
        <mxCell id="58gA9OCRjjGbcAsdGu9h-38" style="edgeStyle=orthogonalEdgeStyle;rounded=0;orthogonalLoop=1;jettySize=auto;html=1;entryX=0;entryY=1;entryDx=0;entryDy=0;elbow=vertical;endArrow=none;endFill=0;" edge="1" parent="1" source="58gA9OCRjjGbcAsdGu9h-12" target="58gA9OCRjjGbcAsdGu9h-2">
          <mxGeometry relative="1" as="geometry">
            <Array as="points">
              <mxPoint x="305" y="480" />
              <mxPoint x="355" y="480" />
            </Array>
          </mxGeometry>
        </mxCell>
        <mxCell id="58gA9OCRjjGbcAsdGu9h-12" value="ROOMID" style="ellipse;whiteSpace=wrap;html=1;" vertex="1" parent="1">
          <mxGeometry x="255" y="497.5" width="80" height="35" as="geometry" />
        </mxCell>
        <mxCell id="58gA9OCRjjGbcAsdGu9h-39" style="edgeStyle=orthogonalEdgeStyle;rounded=0;orthogonalLoop=1;jettySize=auto;html=1;elbow=vertical;endArrow=none;endFill=0;" edge="1" parent="1" source="58gA9OCRjjGbcAsdGu9h-13" target="58gA9OCRjjGbcAsdGu9h-2">
          <mxGeometry relative="1" as="geometry" />
        </mxCell>
        <mxCell id="58gA9OCRjjGbcAsdGu9h-13" value="Max_capacity" style="ellipse;whiteSpace=wrap;html=1;" vertex="1" parent="1">
          <mxGeometry x="350" y="500" width="90" height="30" as="geometry" />
        </mxCell>
        <mxCell id="58gA9OCRjjGbcAsdGu9h-40" style="edgeStyle=orthogonalEdgeStyle;rounded=0;orthogonalLoop=1;jettySize=auto;html=1;entryX=0.9;entryY=1;entryDx=0;entryDy=0;entryPerimeter=0;elbow=vertical;endArrow=none;endFill=0;" edge="1" parent="1" source="58gA9OCRjjGbcAsdGu9h-14" target="58gA9OCRjjGbcAsdGu9h-2">
          <mxGeometry relative="1" as="geometry">
            <Array as="points">
              <mxPoint x="495" y="480" />
              <mxPoint x="427" y="480" />
            </Array>
          </mxGeometry>
        </mxCell>
        <mxCell id="58gA9OCRjjGbcAsdGu9h-14" value="EquipmentCode" style="ellipse;whiteSpace=wrap;html=1;" vertex="1" parent="1">
          <mxGeometry x="455" y="495" width="90" height="40" as="geometry" />
        </mxCell>
        <mxCell id="58gA9OCRjjGbcAsdGu9h-56" style="edgeStyle=orthogonalEdgeStyle;rounded=0;orthogonalLoop=1;jettySize=auto;html=1;entryX=0.113;entryY=-0.075;entryDx=0;entryDy=0;entryPerimeter=0;endArrow=none;endFill=0;elbow=vertical;" edge="1" parent="1" source="58gA9OCRjjGbcAsdGu9h-15" target="58gA9OCRjjGbcAsdGu9h-45">
          <mxGeometry relative="1" as="geometry" />
        </mxCell>
        <mxCell id="58gA9OCRjjGbcAsdGu9h-15" value="SessionID" style="ellipse;whiteSpace=wrap;html=1;" vertex="1" parent="1">
          <mxGeometry x="345" y="110" width="70" height="40" as="geometry" />
        </mxCell>
        <mxCell id="58gA9OCRjjGbcAsdGu9h-57" style="edgeStyle=orthogonalEdgeStyle;rounded=0;orthogonalLoop=1;jettySize=auto;html=1;entryX=0.5;entryY=0;entryDx=0;entryDy=0;endArrow=none;endFill=0;elbow=vertical;" edge="1" parent="1" source="58gA9OCRjjGbcAsdGu9h-16" target="58gA9OCRjjGbcAsdGu9h-45">
          <mxGeometry relative="1" as="geometry" />
        </mxCell>
        <mxCell id="58gA9OCRjjGbcAsdGu9h-16" value="Date" style="ellipse;whiteSpace=wrap;html=1;" vertex="1" parent="1">
          <mxGeometry x="425" y="115" width="60" height="30" as="geometry" />
        </mxCell>
        <mxCell id="58gA9OCRjjGbcAsdGu9h-58" style="edgeStyle=orthogonalEdgeStyle;rounded=0;orthogonalLoop=1;jettySize=auto;html=1;entryX=1;entryY=0;entryDx=0;entryDy=0;endArrow=none;endFill=0;elbow=vertical;" edge="1" parent="1" source="58gA9OCRjjGbcAsdGu9h-17" target="58gA9OCRjjGbcAsdGu9h-45">
          <mxGeometry relative="1" as="geometry">
            <Array as="points">
              <mxPoint x="545" y="170" />
              <mxPoint x="495" y="170" />
            </Array>
          </mxGeometry>
        </mxCell>
        <mxCell id="58gA9OCRjjGbcAsdGu9h-17" value="Time" style="ellipse;whiteSpace=wrap;html=1;" vertex="1" parent="1">
          <mxGeometry x="515" y="115" width="60" height="30" as="geometry" />
        </mxCell>
        <mxCell id="58gA9OCRjjGbcAsdGu9h-27" style="edgeStyle=orthogonalEdgeStyle;rounded=0;orthogonalLoop=1;jettySize=auto;html=1;entryX=0;entryY=0.25;entryDx=0;entryDy=0;" edge="1" parent="1" source="58gA9OCRjjGbcAsdGu9h-19" target="58gA9OCRjjGbcAsdGu9h-23">
          <mxGeometry relative="1" as="geometry" />
        </mxCell>
        <mxCell id="58gA9OCRjjGbcAsdGu9h-19" value="MEMBERID" style="ellipse;whiteSpace=wrap;html=1;" vertex="1" parent="1">
          <mxGeometry x="105" y="270" width="70" height="40" as="geometry" />
        </mxCell>
        <mxCell id="58gA9OCRjjGbcAsdGu9h-32" style="rounded=0;orthogonalLoop=1;jettySize=auto;html=1;entryX=0;entryY=0;entryDx=0;entryDy=0;elbow=vertical;edgeStyle=orthogonalEdgeStyle;" edge="1" parent="1" source="58gA9OCRjjGbcAsdGu9h-20" target="58gA9OCRjjGbcAsdGu9h-23">
          <mxGeometry relative="1" as="geometry" />
        </mxCell>
        <mxCell id="58gA9OCRjjGbcAsdGu9h-20" value="EMAIL ADDRESS" style="ellipse;whiteSpace=wrap;html=1;" vertex="1" parent="1">
          <mxGeometry x="105" y="235" width="100" height="25" as="geometry" />
        </mxCell>
        <mxCell id="58gA9OCRjjGbcAsdGu9h-34" style="edgeStyle=orthogonalEdgeStyle;rounded=0;orthogonalLoop=1;jettySize=auto;html=1;entryX=0;entryY=0.5;entryDx=0;entryDy=0;elbow=vertical;startArrow=none;endArrow=none;endFill=0;" edge="1" parent="1" source="58gA9OCRjjGbcAsdGu9h-35" target="58gA9OCRjjGbcAsdGu9h-2">
          <mxGeometry relative="1" as="geometry">
            <Array as="points">
              <mxPoint x="280" y="400" />
            </Array>
          </mxGeometry>
        </mxCell>
        <mxCell id="58gA9OCRjjGbcAsdGu9h-46" style="edgeStyle=orthogonalEdgeStyle;rounded=0;orthogonalLoop=1;jettySize=auto;html=1;entryX=0.5;entryY=1;entryDx=0;entryDy=0;elbow=vertical;endArrow=none;endFill=0;" edge="1" parent="1" source="58gA9OCRjjGbcAsdGu9h-23" target="58gA9OCRjjGbcAsdGu9h-44">
          <mxGeometry relative="1" as="geometry" />
        </mxCell>
        <mxCell id="58gA9OCRjjGbcAsdGu9h-23" value="Patron" style="rounded=0;whiteSpace=wrap;html=1;" vertex="1" parent="1">
          <mxGeometry x="245" y="320" width="70" height="30" as="geometry" />
        </mxCell>
        <mxCell id="58gA9OCRjjGbcAsdGu9h-30" style="edgeStyle=orthogonalEdgeStyle;rounded=0;orthogonalLoop=1;jettySize=auto;html=1;entryX=0;entryY=0.75;entryDx=0;entryDy=0;" edge="1" parent="1" source="58gA9OCRjjGbcAsdGu9h-28" target="58gA9OCRjjGbcAsdGu9h-23">
          <mxGeometry relative="1" as="geometry">
            <Array as="points">
              <mxPoint x="215" y="395" />
              <mxPoint x="215" y="343" />
            </Array>
          </mxGeometry>
        </mxCell>
        <mxCell id="58gA9OCRjjGbcAsdGu9h-28" value="PNAME" style="ellipse;whiteSpace=wrap;html=1;" vertex="1" parent="1">
          <mxGeometry x="115" y="380" width="50" height="30" as="geometry" />
        </mxCell>
        <mxCell id="58gA9OCRjjGbcAsdGu9h-31" style="edgeStyle=orthogonalEdgeStyle;rounded=0;orthogonalLoop=1;jettySize=auto;html=1;entryX=0;entryY=0.5;entryDx=0;entryDy=0;" edge="1" parent="1" source="58gA9OCRjjGbcAsdGu9h-29" target="58gA9OCRjjGbcAsdGu9h-23">
          <mxGeometry relative="1" as="geometry" />
        </mxCell>
        <mxCell id="58gA9OCRjjGbcAsdGu9h-29" value="ADDRESS" style="ellipse;whiteSpace=wrap;html=1;" vertex="1" parent="1">
          <mxGeometry x="105" y="330" width="70" height="40" as="geometry" />
        </mxCell>
        <mxCell id="58gA9OCRjjGbcAsdGu9h-35" value="Uses" style="rhombus;whiteSpace=wrap;html=1;" vertex="1" parent="1">
          <mxGeometry x="255" y="380" width="50" height="40" as="geometry" />
        </mxCell>
        <mxCell id="58gA9OCRjjGbcAsdGu9h-36" value="" style="edgeStyle=orthogonalEdgeStyle;rounded=0;orthogonalLoop=1;jettySize=auto;html=1;entryX=0.5;entryY=0;entryDx=0;entryDy=0;elbow=vertical;endArrow=none;" edge="1" parent="1" source="58gA9OCRjjGbcAsdGu9h-23" target="58gA9OCRjjGbcAsdGu9h-35">
          <mxGeometry relative="1" as="geometry">
            <mxPoint x="280" y="350" as="sourcePoint" />
            <mxPoint x="325" y="400" as="targetPoint" />
            <Array as="points" />
          </mxGeometry>
        </mxCell>
        <mxCell id="58gA9OCRjjGbcAsdGu9h-42" value="Has" style="rhombus;whiteSpace=wrap;html=1;" vertex="1" parent="1">
          <mxGeometry x="365" y="310" width="60" height="60" as="geometry" />
        </mxCell>
        <mxCell id="58gA9OCRjjGbcAsdGu9h-43" value="" style="edgeStyle=orthogonalEdgeStyle;rounded=0;orthogonalLoop=1;jettySize=auto;html=1;elbow=vertical;endArrow=none;" edge="1" parent="1" source="58gA9OCRjjGbcAsdGu9h-2" target="58gA9OCRjjGbcAsdGu9h-42">
          <mxGeometry relative="1" as="geometry">
            <mxPoint x="395" y="420" as="sourcePoint" />
            <mxPoint x="565" y="340" as="targetPoint" />
            <Array as="points" />
          </mxGeometry>
        </mxCell>
        <mxCell id="58gA9OCRjjGbcAsdGu9h-47" style="edgeStyle=orthogonalEdgeStyle;rounded=0;orthogonalLoop=1;jettySize=auto;html=1;elbow=vertical;endArrow=none;endFill=0;" edge="1" parent="1" source="58gA9OCRjjGbcAsdGu9h-44" target="58gA9OCRjjGbcAsdGu9h-45">
          <mxGeometry relative="1" as="geometry" />
        </mxCell>
        <mxCell id="58gA9OCRjjGbcAsdGu9h-44" value="Attends" style="rhombus;whiteSpace=wrap;html=1;" vertex="1" parent="1">
          <mxGeometry x="275" y="190" width="60" height="60" as="geometry" />
        </mxCell>
        <mxCell id="58gA9OCRjjGbcAsdGu9h-48" style="edgeStyle=orthogonalEdgeStyle;rounded=0;orthogonalLoop=1;jettySize=auto;html=1;elbow=vertical;endArrow=none;endFill=0;" edge="1" parent="1" source="58gA9OCRjjGbcAsdGu9h-45" target="58gA9OCRjjGbcAsdGu9h-4">
          <mxGeometry relative="1" as="geometry" />
        </mxCell>
        <mxCell id="58gA9OCRjjGbcAsdGu9h-45" value="SESSION" style="rounded=0;whiteSpace=wrap;html=1;" vertex="1" parent="1">
          <mxGeometry x="415" y="200" width="80" height="40" as="geometry" />
        </mxCell>
        <mxCell id="58gA9OCRjjGbcAsdGu9h-49" value="Trains" style="rhombus;whiteSpace=wrap;html=1;" vertex="1" parent="1">
          <mxGeometry x="545" y="180" width="80" height="80" as="geometry" />
        </mxCell>
        <mxCell id="58gA9OCRjjGbcAsdGu9h-51" value="EMPLOY" style="rhombus;whiteSpace=wrap;html=1;" vertex="1" parent="1">
          <mxGeometry x="675" y="255" width="70" height="65" as="geometry" />
        </mxCell>
        <mxCell id="58gA9OCRjjGbcAsdGu9h-61" style="edgeStyle=orthogonalEdgeStyle;rounded=0;orthogonalLoop=1;jettySize=auto;html=1;entryX=0;entryY=1;entryDx=0;entryDy=0;endArrow=none;endFill=0;elbow=vertical;" edge="1" parent="1" source="58gA9OCRjjGbcAsdGu9h-55" target="58gA9OCRjjGbcAsdGu9h-6">
          <mxGeometry relative="1" as="geometry" />
        </mxCell>
        <mxCell id="58gA9OCRjjGbcAsdGu9h-55" value="FITNAME" style="ellipse;whiteSpace=wrap;html=1;" vertex="1" parent="1">
          <mxGeometry x="475" y="400" width="70" height="40" as="geometry" />
        </mxCell>
        <mxCell id="58gA9OCRjjGbcAsdGu9h-60" style="edgeStyle=orthogonalEdgeStyle;rounded=0;orthogonalLoop=1;jettySize=auto;html=1;entryX=0.5;entryY=0;entryDx=0;entryDy=0;endArrow=none;endFill=0;elbow=vertical;" edge="1" parent="1" source="58gA9OCRjjGbcAsdGu9h-59" target="58gA9OCRjjGbcAsdGu9h-4">
          <mxGeometry relative="1" as="geometry" />
        </mxCell>
        <mxCell id="58gA9OCRjjGbcAsdGu9h-59" value="NAME" style="ellipse;whiteSpace=wrap;html=1;" vertex="1" parent="1">
          <mxGeometry x="675" y="150" width="70" height="30" as="geometry" />
        </mxCell>
      </root>
    </mxGraphModel>
  </diagram>
</mxfile>
